<svg id="visual" viewBox="0 0 900 600" width="900" height="600" xmlns="http://www.w3.org/2000/svg" xmlns:xlink="http://www.w3.org/1999/xlink" version="1.1"><rect x="0" y="0" width="900" height="600" fill="#ceced3"></rect><defs><linearGradient id="grad1_0" x1="33.3%" y1="0%" x2="100%" y2="100%"><stop offset="20%" stop-color="#ceced3" stop-opacity="1"></stop><stop offset="80%" stop-color="#ceced3" stop-opacity="1"></stop></linearGradient></defs><defs><linearGradient id="grad2_0" x1="0%" y1="0%" x2="66.7%" y2="100%"><stop offset="20%" stop-color="#ceced3" stop-opacity="1"></stop><stop offset="80%" stop-color="#ceced3" stop-opacity="1"></stop></linearGradient></defs><g transform="translate(900, 0)"><path d="M0 378.6C-47.2 365.7 -94.4 352.7 -138.5 334.4C-182.7 316.2 -223.9 292.5 -260.9 260.9C-298 229.3 -330.8 189.7 -349.8 144.9C-368.7 100.1 -373.6 50 -378.6 0L0 0Z" fill="#4a6ec2"></path></g><g transform="translate(0, 600)"><path d="M0 -378.6C47.6 -368.1 95.1 -357.6 141.2 -340.9C187.3 -324.2 231.9 -301.2 267.7 -267.7C303.5 -234.2 330.4 -190.3 347.4 -143.9C364.4 -97.5 371.5 -48.8 378.6 0L0 0Z" fill="#4a6ec2"></path></g></svg>