<svg viewBox="0 0 64 64" xmlns="http://www.w3.org/2000/svg"><circle cx="57.5" cy="6.5" fill="none" r="2.5" stroke="#4c241d" stroke-linecap="round" stroke-linejoin="round" stroke-width="2"/><circle cx="24.5" cy="23.5" fill="#e5efef" r="21.5"/><path d="m22.837 6.663-3.674 3.674" fill="none" stroke="#4c241d" stroke-linecap="round" stroke-linejoin="round" stroke-width="2"/><path d="m19.163 6.663 3.674 3.674" fill="none" stroke="#4c241d" stroke-linecap="round" stroke-linejoin="round" stroke-width="2"/><circle cx="17" cy="14" fill="#4c241d" r="1"/><g stroke="#4c241d" stroke-linecap="round" stroke-linejoin="round" stroke-width="2"><path d="m8.756 34c2.173 11.259 8.827 20.117 17.276 23h-4.032v3h20v-3h-4.032c8.449-2.883 15.1-11.741 17.276-23" fill="#fff"/><circle cx="25" cy="25" fill="#bf7e68" r="6"/><circle cx="32.5" cy="19.5" fill="#f4aeab" r="7.5"/><circle cx="40" cy="25" fill="#e2e2e2" r="6"/><path d="m25 31a6 6 0 0 0 -12 0z" fill="#77a052"/><path d="m38 31a6 6 0 0 0 -12 0z" fill="#ffce56"/><path d="m51 31a6 6 0 0 0 -12 0z" fill="#816982"/><path d="m61 60a6 6 0 0 0 -12 0z" fill="#e66353"/><path d="m27.771 40.271 2.607.283 1.643-2.044 1.643 2.044 2.607-.283-.284 2.607 2.044 1.643-2.044 1.643.284 2.607-2.607-.284-1.643 2.044-1.643-2.044-2.607.284.283-2.607-2.044-1.643 2.044-1.643z" fill="#ffce56"/><path d="m14.78 34h-6.28a1.5 1.5 0 0 1 -1.5-1.5 1.5 1.5 0 0 1 1.5-1.5h47a1.5 1.5 0 0 1 1.5 1.5 1.5 1.5 0 0 1 -1.5 1.5h-33.5" fill="#fff"/><path d="m26 57h5" fill="none"/><path d="m60 60h-55" fill="none"/></g></svg>
