<svg id="visual" viewBox="0 0 900 600" width="900" height="600" xmlns="http://www.w3.org/2000/svg" xmlns:xlink="http://www.w3.org/1999/xlink" version="1.1"><path d="M0 115L82 67L164 61L245 91L327 73L409 49L491 109L573 103L655 49L736 67L818 73L900 79L900 0L818 0L736 0L655 0L573 0L491 0L409 0L327 0L245 0L164 0L82 0L0 0Z" fill="#4a6ec2"></path><path d="M0 193L82 175L164 187L245 301L327 277L409 307L491 211L573 325L655 271L736 301L818 271L900 247L900 77L818 71L736 65L655 47L573 101L491 107L409 47L327 71L245 89L164 59L82 65L0 113Z" fill="#4062b2"></path><path d="M0 391L82 475L164 391L245 445L327 481L409 487L491 409L573 409L655 361L736 439L818 391L900 439L900 245L818 269L736 299L655 269L573 323L491 209L409 305L327 275L245 299L164 185L82 173L0 191Z" fill="#3656a2"></path><path d="M0 511L82 559L164 529L245 565L327 547L409 553L491 517L573 517L655 529L736 517L818 553L900 505L900 437L818 389L736 437L655 359L573 407L491 407L409 485L327 479L245 443L164 389L82 473L0 389Z" fill="#2c4a93"></path><path d="M0 601L82 601L164 601L245 601L327 601L409 601L491 601L573 601L655 601L736 601L818 601L900 601L900 503L818 551L736 515L655 527L573 515L491 515L409 551L327 545L245 563L164 527L82 557L0 509Z" fill="#223f84"></path></svg>