<svg viewBox="0 0 72 72" xmlns="http://www.w3.org/2000/svg"><path d="m52.3958 38c1-8-6.7158-13-15-13s-15.9725 7.78-17 16c-1 8 7.7157 16 16 16s14.9724-10.78 16-19z" fill="#ea5a47"/><path d="m36.3958 25c10-1 14 5 14 5" fill="#ea5a47"/><path d="m52.3958 33c4.8709 16.5612-11.6148 30.1229-16 31-5 1-13-11-15-16" fill="#ea5a47"/><path d="m45.3958 42.5a19.4819 19.4819 0 0 0 -9.91-16.9669 7.39 7.39 0 0 1 2.91-.5331c8.2843 0 15 5 14 13-1.1232 8.9855-3 22-16 26-1.8881.5809-4.23-1.6717-5.005-2.7986a19.4982 19.4982 0 0 0 14.005-18.7014z" fill="#d22f27"/><path d="m20.3958 45s-8.0234-19.6487 16-20" fill="#ea5a47"/><circle cx="25.3958" cy="35" fill="#d22f27" r="2"/><circle cx="33.3958" cy="35" fill="#d22f27" r="2"/><circle cx="40.3958" cy="35" fill="#d22f27" r="2"/><circle cx="47.3958" cy="35" fill="#d22f27" r="2"/><circle cx="44.3958" cy="43" fill="#d22f27" r="2"/><circle cx="36.3958" cy="43" fill="#d22f27" r="2"/><circle cx="28.3958" cy="43" fill="#d22f27" r="2"/><circle cx="32.3958" cy="52" fill="#d22f27" r="2"/><circle cx="40.3958" cy="52" fill="#d22f27" r="2"/><path d="m32.3972 10.6576q.0966-.2432.2028-.4876a14.0007 14.0007 0 0 1 1.9272-3.17 14.02 14.02 0 0 1 2.9189 15.4726c-.508 1.1684-5.513-.344-6.7269-.2791" fill="#186648"/><path d="m35.0511 20.9331a14.001 14.001 0 0 1 -.14 3.7072 13.956 13.956 0 0 1 -9.942-15.8017 14.02 14.02 0 0 1 10.082 12.0945z" fill="#b1cc33"/><path d="m46.0116 10.6663a14.6194 14.6194 0 0 0 -.1926-1.8277 13.9555 13.9555 0 0 0 -9.9417 15.8014 14.02 14.02 0 0 0 10.0819-12.0942" fill="#b1cc33"/><path d="m43.9648 10.8958a12.9921 12.9921 0 0 0 -.0711-1.3451 13.997 13.997 0 0 1 1.9254-.7121 14.6572 14.6572 0 0 1 .1926 1.8277l-.0525 1.88a14.02 14.02 0 0 1 -10.0819 12.0937 14.6958 14.6958 0 0 1 -.1865-1.7443 12.8492 12.8492 0 0 0 8.274-11.9999z" fill="#5c9e31"/><g fill="none"><path d="m52.3958 38c1-8-6.7158-13-15-13s-15.9725 7.78-17 16c-1 8 7.7157 16 16 16s14.9724-10.78 16-19z"/><path d="m36.3958 25c10-1 14 5 14 5" stroke="#000" stroke-linecap="round" stroke-linejoin="round" stroke-width="2"/><path d="m45.3958 42.5a19.4819 19.4819 0 0 0 -9.91-16.9669 7.39 7.39 0 0 1 2.91-.5331c8.2843 0 15 5 14 13-1.1232 8.9855-3 22-16 26-1.8881.5809-4.23-1.6717-5.005-2.7986a19.4982 19.4982 0 0 0 14.005-18.7014z"/><path d="m20.3958 45s-8.0234-19.6487 16-20" stroke="#000" stroke-linecap="round" stroke-linejoin="round" stroke-width="2"/><circle cx="25.3958" cy="35" r="2"/><circle cx="33.3958" cy="35" r="2"/><circle cx="40.3958" cy="35" r="2"/><circle cx="47.3958" cy="35" r="2"/><circle cx="44.3958" cy="43" r="2"/><circle cx="36.3958" cy="43" r="2"/><circle cx="28.3958" cy="43" r="2"/><circle cx="32.3958" cy="52" r="2"/><circle cx="40.3958" cy="52" r="2"/><path d="m25.1921 35.5v-2.0155" stroke="#000" stroke-linecap="round" stroke-linejoin="round" stroke-width="2"/><path d="m33.1921 35.5v-2.0155" stroke="#000" stroke-linecap="round" stroke-linejoin="round" stroke-width="2"/><path d="m40.1921 35.5v-2.0155" stroke="#000" stroke-linecap="round" stroke-linejoin="round" stroke-width="2"/><path d="m47.1921 35.5v-2.0155" stroke="#000" stroke-linecap="round" stroke-linejoin="round" stroke-width="2"/><path d="m44.1921 43.5v-2.0155" stroke="#000" stroke-linecap="round" stroke-linejoin="round" stroke-width="2"/><path d="m36.1921 43.5v-2.0155" stroke="#000" stroke-linecap="round" stroke-linejoin="round" stroke-width="2"/><path d="m28.1921 43.5v-2.0155" stroke="#000" stroke-linecap="round" stroke-linejoin="round" stroke-width="2"/><path d="m32.1921 52.5v-2.0155" stroke="#000" stroke-linecap="round" stroke-linejoin="round" stroke-width="2"/><path d="m40.1921 52.5v-2.0155" stroke="#000" stroke-linecap="round" stroke-linejoin="round" stroke-width="2"/><path d="m52.3958 33c4.8709 16.5612-11.6148 30.1229-16 31-5 1-13-11-15-16" stroke="#000" stroke-linecap="round" stroke-linejoin="round" stroke-width="2"/><path d="m36.3958 25c10-1 14 5 14 5" stroke="#000" stroke-linecap="round" stroke-linejoin="round" stroke-width="2"/><path d="m32.3972 10.6576q.0966-.2432.2028-.4876a14.0007 14.0007 0 0 1 1.9272-3.17 14.09 14.09 0 0 1 3.7615 6.9188" stroke="#000" stroke-linecap="round" stroke-linejoin="round" stroke-width="1.5583"/><path d="m35.0511 20.9331a14.001 14.001 0 0 1 -.14 3.7072 13.956 13.956 0 0 1 -9.942-15.8017 14.02 14.02 0 0 1 10.082 12.0945z" stroke="#000" stroke-linejoin="round" stroke-width="1.5583"/><path d="m46.0116 10.6663a14.6194 14.6194 0 0 0 -.1926-1.8277 13.9555 13.9555 0 0 0 -9.9417 15.8014 14.02 14.02 0 0 0 10.0819-12.0942" stroke="#000" stroke-linecap="round" stroke-linejoin="round" stroke-width="1.5583"/><path d="m43.9648 10.8958a12.9921 12.9921 0 0 0 -.0711-1.3451 13.997 13.997 0 0 1 1.9254-.7121 14.6572 14.6572 0 0 1 .1926 1.8277l-.0525 1.88a14.02 14.02 0 0 1 -10.0819 12.0937 14.6958 14.6958 0 0 1 -.1865-1.7443 12.8492 12.8492 0 0 0 8.274-11.9999z"/><path d="m46.0116 10.6663a14.6194 14.6194 0 0 0 -.1926-1.8277 13.9555 13.9555 0 0 0 -9.9417 15.8014 14.02 14.02 0 0 0 10.0819-12.0942" stroke="#000" stroke-linecap="round" stroke-linejoin="round" stroke-width="1.5583"/><path d="m25.1921 35.5v-2.0155" stroke="#000" stroke-linecap="round" stroke-linejoin="round" stroke-width="2"/><path d="m33.1921 35.5v-2.0155" stroke="#000" stroke-linecap="round" stroke-linejoin="round" stroke-width="2"/><path d="m40.1921 35.5v-2.0155" stroke="#000" stroke-linecap="round" stroke-linejoin="round" stroke-width="2"/><path d="m47.1921 35.5v-2.0155" stroke="#000" stroke-linecap="round" stroke-linejoin="round" stroke-width="2"/><path d="m44.1921 43.5v-2.0155" stroke="#000" stroke-linecap="round" stroke-linejoin="round" stroke-width="2"/><path d="m36.1921 43.5v-2.0155" stroke="#000" stroke-linecap="round" stroke-linejoin="round" stroke-width="2"/><path d="m28.1921 43.5v-2.0155" stroke="#000" stroke-linecap="round" stroke-linejoin="round" stroke-width="2"/><path d="m32.1921 52.5v-2.0155" stroke="#000" stroke-linecap="round" stroke-linejoin="round" stroke-width="2"/><path d="m40.1921 52.5v-2.0155" stroke="#000" stroke-linecap="round" stroke-linejoin="round" stroke-width="2"/><path d="m52.3958 33c4.8709 16.5612-11.6148 30.1229-16 31-5 1-13-11-15-16" stroke="#000" stroke-linecap="round" stroke-linejoin="round" stroke-width="2"/><path d="m36.3958 25c10-1 14 5 14 5" stroke="#000" stroke-linecap="round" stroke-linejoin="round" stroke-width="2"/></g></svg>